<svg width="58" height="60" viewBox="0 0 58 60" fill="none" xmlns="http://www.w3.org/2000/svg">
<path d="M29 22C27.5733 22 26.4167 23.1939 26.4167 24.6667V38.7136C24.8724 39.6357 23.8334 41.3592 23.8334 43.3333C23.8334 46.2789 26.1465 48.6667 29 48.6667C31.8536 48.6667 34.1667 46.2789 34.1667 43.3333C34.1667 41.3592 33.1277 39.6357 31.5834 38.7136V24.6667C31.5834 23.1939 30.4268 22 29 22Z" fill="white"/>
<path d="M26.4167 14C26.4167 12.5273 27.5732 11.3334 29 11.3334C30.4268 11.3334 31.5834 12.5273 31.5834 14C31.5834 15.4728 30.4268 16.6667 29 16.6667C27.5732 16.6667 26.4167 15.4728 26.4167 14Z" fill="white"/>
<path d="M39.3333 16.6667C37.9066 16.6667 36.75 17.8606 36.75 19.3334C36.75 20.8061 37.9066 22 39.3333 22C40.7601 22 41.9167 20.8061 41.9167 19.3334C41.9167 17.8606 40.7601 16.6667 39.3333 16.6667Z" fill="white"/>
<path d="M13.5 32.6667C12.0733 32.6667 10.9167 31.4728 10.9167 30C10.9167 28.5272 12.0733 27.3334 13.5 27.3334C14.9267 27.3334 16.0834 28.5272 16.0834 30C16.0834 31.4728 14.9267 32.6667 13.5 32.6667Z" fill="white"/>
<path d="M16.0833 19.3334C16.0833 20.8061 17.24 22 18.6667 22C20.0934 22 21.25 20.8061 21.25 19.3334C21.25 17.8606 20.0934 16.6667 18.6667 16.6667C17.24 16.6667 16.0833 17.8606 16.0833 19.3334Z" fill="white"/>
<path d="M44.5 32.6667C43.0732 32.6667 41.9167 31.4728 41.9167 30C41.9167 28.5272 43.0732 27.3334 44.5 27.3334C45.9268 27.3334 47.0834 28.5272 47.0834 30C47.0834 31.4728 45.9268 32.6667 44.5 32.6667Z" fill="white"/>
<path fill-rule="evenodd" clip-rule="evenodd" d="M29 59.3334C44.694 59.3334 57.4167 46.2003 57.4167 30C57.4167 13.7997 44.694 0.666687 29 0.666687C13.3059 0.666687 0.583344 13.7997 0.583344 30C0.583344 46.2003 13.3059 59.3334 29 59.3334ZM29 53.9819C16.1691 53.9819 5.76765 43.2448 5.76765 30C5.76765 16.7552 16.1691 6.01823 29 6.01823C41.8309 6.01823 52.2324 16.7552 52.2324 30C52.2324 43.2448 41.8309 53.9819 29 53.9819Z" fill="white"/>
</svg>
